<?xml version="1.0" standalone="no"?>
<!DOCTYPE svg PUBLIC "-//W3C//DTD SVG 20010904//EN"
 "http://www.w3.org/TR/2001/REC-SVG-20010904/DTD/svg10.dtd">
<svg version="1.0" xmlns="http://www.w3.org/2000/svg"
 width="180.000000pt" height="148.000000pt" viewBox="0 0 180.000000 148.000000"
 preserveAspectRatio="xMidYMid meet">

<g transform="translate(0.000000,148.000000) scale(0.100000,-0.100000)"
fill="#000000" stroke="none">
<path d="M1026 1163 c-91 -129 -158 -270 -202 -420 -2 -9 -14 -8 -48 3 l-46
16 26 44 c40 68 24 61 -29 -12 -31 -42 -43 -66 -34 -69 6 -3 51 -18 98 -34
l86 -29 6 58 c12 107 88 311 172 460 19 33 32 60 30 60 -3 0 -29 -35 -59 -77z"/>
<path d="M686 671 c-8 -15 -37 -48 -64 -72 -44 -40 -48 -47 -40 -74 9 -33 36
-191 41 -240 2 -23 10 -7 36 73 28 87 32 108 22 129 -9 21 -9 30 4 49 20 31
50 31 70 0 19 -29 8 -61 -24 -71 -14 -4 -27 -30 -47 -93 -14 -48 -31 -98 -36
-112 -7 -18 1 -12 28 20 46 54 141 147 170 167 21 13 21 16 8 60 -8 25 -14 70
-14 98 0 57 2 55 -89 84 -47 15 -49 15 -65 -18z"/>
<path d="M985 340 c-81 -9 -152 -26 -160 -40 -9 -14 26 -28 142 -56 151 -35
147 -34 134 -47 -8 -8 -88 -14 -239 -17 -225 -5 -226 -5 -117 -14 112 -9 300
-2 368 13 83 20 62 34 -102 71 -140 32 -154 36 -146 49 5 10 122 29 245 40
l85 8 -70 0 c-38 0 -101 -3 -140 -7z"/>
</g>
</svg>
